<svg xmlns="http://www.w3.org/2000/svg" viewBox="0 0 576 214"><defs><style>.cls-1{fill:#2b3287;}.cls-2{fill:none;}</style></defs><title>cba_logo</title><g id="Ebene_2" data-name="Ebene 2"><g id="Ebene_2-2" data-name="Ebene 2"><path class="cls-1" d="M174.73,143.16s-9.87,69.12-83.93,69.12c-51,0-87.22-36.21-87.22-87.22S39.78,37.84,90.8,37.84c74.06,0,83.93,69.12,83.93,69.12h-51s-6.58-23-32.91-23C69.4,83.91,53,100.37,53,125.06S69.4,166.2,90.8,166.2c26.33,0,32.91-23,32.91-23Z"/><path class="cls-1" d="M206,3.62h49.37V54.29H257s13.17-16.45,42.79-16.45c44.43,0,80.64,36.2,80.64,87.22s-36.21,87.22-80.64,87.22c-32.92,0-46.08-19.75-46.08-19.75h-1.65L248.78,209H206ZM331.07,125.06c0-24.69-16.46-41.15-37.85-41.15s-37.86,16.46-37.86,41.15,16.46,41.14,37.86,41.14S331.07,149.74,331.07,125.06Z"/><path class="cls-1" d="M573,209H530.21l-3.29-16.46h-1.65s-13.16,19.75-46.08,19.75c-44.43,0-80.63-36.21-80.63-87.22s36.2-87.22,80.63-87.22c29.63,0,42.79,16.45,42.79,16.45h1.65V37.84H573ZM485.78,166.2c21.39,0,37.85-16.46,37.85-41.14s-16.46-41.15-37.85-41.15-37.85,16.46-37.85,41.15S464.38,166.2,485.78,166.2Z"/><rect class="cls-2" width="576" height="214"/></g></g></svg>