<?xml version="1.0" encoding="UTF-8" standalone="no"?>
<svg
   xmlns:dc="http://purl.org/dc/elements/1.1/"
   xmlns:cc="http://creativecommons.org/ns#"
   xmlns:rdf="http://www.w3.org/1999/02/22-rdf-syntax-ns#"
   xmlns:svg="http://www.w3.org/2000/svg"
   xmlns="http://www.w3.org/2000/svg"
   xmlns:xlink="http://www.w3.org/1999/xlink"
   xml:space="preserve"
   enable-background="new 0 0 1400 980"
   viewBox="0 0 358.03927 107.8948"
   height="107.8948"
   width="358.03928"
   y="0px"
   x="0px"
   id="Layer_1"
   version="1.1"><metadata
   id="metadata120"><rdf:RDF><cc:Work
       rdf:about=""><dc:format>image/svg+xml</dc:format><dc:type
         rdf:resource="http://purl.org/dc/dcmitype/StillImage" /><dc:title></dc:title></cc:Work></rdf:RDF></metadata><defs
   id="defs118">
		
		
		
		
		
		
		
		
		
		
		
		
		
		
		
		
		
		
		
		
		
		
		
		
		
		
		
		
		
		
		
		
		
		
		
		
		
		
		
		
		
		
		
		
		
		
		
		
		
		
		
		
		
		
		
		
		
		
		
		
		
		
		
		
		
			
		
		
		
		
		
	<linearGradient
   gradientUnits="userSpaceOnUse"
   y2="397.20999"
   x2="175.07001"
   y1="397.20999"
   x1="134.77"
   id="Red_2"><stop
     id="stop42"
     stop-color="#fce6f0"
     offset="0.01" /><stop
     id="stop44"
     stop-color="#f9c9de"
     offset="0.45" /><stop
     id="stop46"
     stop-color="#f7b2d0"
     offset="1" /></linearGradient><linearGradient
   gradientTransform="matrix(0.33695991,0,0,0.35946912,445.61711,459.47285)"
   xlink:href="#Red_2"
   y2="883.66998"
   x2="1197.33"
   y1="865.66998"
   x1="1197.33"
   id="linear-gradient-23-7" /><linearGradient
   gradientTransform="matrix(0.33695991,0,0,0.35946912,445.61711,459.47285)"
   xlink:href="#Red_2"
   y2="884.90997"
   x2="873.78003"
   y1="867"
   x1="873.78003"
   id="linear-gradient-21-4" /><linearGradient
   xlink:href="#linear-gradient-7"
   y2="860.27002"
   x2="612.20001"
   y1="892.54999"
   x1="640.40002"
   id="linear-gradient-20-0" /><linearGradient
   gradientUnits="userSpaceOnUse"
   y2="737.39001"
   x2="901.83002"
   y1="747.01001"
   x1="907.25"
   id="linear-gradient-7"><stop
     id="stop105"
     stop-color="#f7b2d0"
     offset="0" /><stop
     id="stop107"
     stop-color="#f9c9de"
     offset="0.55" /><stop
     id="stop109"
     stop-color="#fce6f0"
     offset="0.99" /></linearGradient><linearGradient
   xlink:href="#Red_2"
   y2="899.57001"
   x2="337.25"
   y1="895.78003"
   x1="337.25"
   id="Red_2-152-9" /><linearGradient
   xlink:href="#Red_2"
   gradientTransform="matrix(-0.33695991,0,0,0.35946912,1816.4812,459.47285)"
   y2="906.91998"
   x2="3615.25"
   y1="887.35999"
   x1="3615.25"
   id="Red_2-151" /><linearGradient
   xlink:href="#Red_2"
   gradientTransform="matrix(-0.33695991,0,0,0.35946912,1816.4812,459.47285)"
   y2="903.23999"
   x2="3607.1399"
   y1="891.63"
   x1="3607.1399"
   id="Red_2-150" /><linearGradient
   gradientTransform="matrix(0.33695991,0,0,0.35946912,445.61711,459.47285)"
   xlink:href="#Red_2"
   y2="903.21002"
   x2="529.53998"
   y1="890.53998"
   x1="529.53998"
   id="Red_2-149-4" /><linearGradient
   gradientTransform="matrix(0.33695991,0,0,0.35946912,445.61711,459.47285)"
   xlink:href="#Red_2"
   y2="858.25"
   x2="350.22"
   y1="853.71002"
   x1="348.45999"
   id="Red_2-148-6" /><linearGradient
   gradientTransform="matrix(0.33695991,0,0,0.35946912,445.61711,459.47285)"
   xlink:href="#Red_2"
   y2="858.25"
   x2="340.64001"
   y1="853.71002"
   x1="338.88"
   id="Red_2-147-6" /><linearGradient
   gradientTransform="matrix(0.33695991,0,0,0.35946912,445.61711,459.47285)"
   xlink:href="#Red_2"
   y2="858.25"
   x2="331.04999"
   y1="853.71002"
   x1="329.29999"
   id="Red_2-146-2" /><linearGradient
   xlink:href="#Red_2"
   gradientTransform="matrix(-0.33695991,0,0,0.35946912,1861.6912,459.47285)"
   y2="863.14001"
   x2="3675.71"
   y1="848.57001"
   x1="3670.0701"
   id="Red_2-145" /><linearGradient
   xlink:href="#Red_2"
   gradientTransform="matrix(-0.33695991,0,0,0.35946912,1816.4812,459.47285)"
   y2="865.48999"
   x2="3618.9099"
   y1="846.10999"
   x1="3611.4099"
   id="Red_2-144" /><linearGradient
   gradientTransform="matrix(0.33695991,0,0,0.35946912,445.61711,459.47285)"
   xlink:href="#Red_2"
   y2="754.48999"
   x2="1110.16"
   y1="789.31"
   x1="1110.16"
   id="linear-gradient-19-9" /><linearGradient
   gradientTransform="matrix(0.33695991,0,0,0.35946912,445.61711,459.47285)"
   xlink:href="#Red_2"
   y2="754.48999"
   x2="1124.6899"
   y1="789.31"
   x1="1124.6899"
   id="linear-gradient-18-8" /><linearGradient
   gradientTransform="matrix(0.33695991,0,0,0.35946912,445.61711,459.47285)"
   xlink:href="#Red_2"
   y2="754.48999"
   x2="1139.21"
   y1="789.31"
   x1="1139.21"
   id="linear-gradient-17-6" /><linearGradient
   gradientTransform="matrix(0.33695991,0,0,0.35946912,445.61711,459.47285)"
   xlink:href="#Red_2"
   y2="754.48999"
   x2="1153.74"
   y1="789.31"
   x1="1153.74"
   id="linear-gradient-16-0" /><linearGradient
   gradientTransform="matrix(0.33695991,0,0,0.35946912,445.61711,459.47285)"
   xlink:href="#Red_2"
   y2="754.48999"
   x2="1168.27"
   y1="789.31"
   x1="1168.27"
   id="linear-gradient-15-2" /><linearGradient
   gradientTransform="matrix(0.33695991,0,0,0.35946912,445.61711,459.47285)"
   xlink:href="#Red_2"
   y2="754.48999"
   x2="1182.8"
   y1="789.31"
   x1="1182.8"
   id="linear-gradient-14-9" /><linearGradient
   gradientTransform="matrix(0.33695991,0,0,0.35946912,445.61711,459.47285)"
   xlink:href="#Red_2"
   y2="754.48999"
   x2="1197.33"
   y1="789.31"
   x1="1197.33"
   id="linear-gradient-13-4" /><linearGradient
   gradientTransform="matrix(0.33695991,0,0,0.35946912,445.61711,459.47285)"
   xlink:href="#Red_2"
   y2="749.46997"
   x2="1002.71"
   y1="737.76001"
   x1="1002.71"
   id="Red_2-143-1" /><linearGradient
   gradientTransform="matrix(0.33695991,0,0,0.35946912,445.61711,459.47285)"
   xlink:href="#Red_2"
   y2="746.33002"
   x2="965.65997"
   y1="739.76001"
   x1="965.65997"
   id="Red_2-142-3" /><linearGradient
   gradientTransform="matrix(0.33695991,0,0,0.35946912,445.61711,459.47285)"
   xlink:href="#Red_2"
   y2="746.33002"
   x2="959.44"
   y1="739.76001"
   x1="959.44"
   id="Red_2-141-4" /><linearGradient
   gradientTransform="matrix(0.33695991,0,0,0.35946912,445.61711,459.47285)"
   xlink:href="#Red_2"
   y2="743.51001"
   x2="824.65002"
   y1="743.51001"
   x1="804.48999"
   id="Red_2-140-8" /><linearGradient
   gradientTransform="matrix(0.33695991,0,0,0.35946912,445.61711,459.47285)"
   xlink:href="#Red_2"
   y2="747.03998"
   x2="847.59998"
   y1="739.92999"
   x1="847.59998"
   id="Red_2-139-8" /><linearGradient
   gradientTransform="matrix(0.33695991,0,0,0.35946912,445.61711,459.47285)"
   xlink:href="#Red_2"
   y2="747.03998"
   x2="853.82001"
   y1="739.92999"
   x1="853.82001"
   id="Red_2-138-6" /><linearGradient
   gradientTransform="matrix(0.33695991,0,0,0.35946912,445.61711,459.47285)"
   xlink:href="#linear-gradient-7"
   y2="729.52002"
   x2="850.71002"
   y1="757.51001"
   x1="850.71002"
   id="linear-gradient-12-8" /><linearGradient
   gradientTransform="matrix(0.33695991,0,0,0.35946912,445.61711,459.47285)"
   xlink:href="#linear-gradient-7"
   y2="729.52002"
   x2="810.54999"
   y1="757.51001"
   x1="810.54999"
   id="linear-gradient-11-7" /><linearGradient
   gradientTransform="matrix(0.33695991,0,0,0.35946912,445.61711,459.47285)"
   xlink:href="#linear-gradient-7"
   y2="729.52002"
   x2="1002.71"
   y1="757.51001"
   x1="1002.71"
   id="linear-gradient-10-0" /><linearGradient
   gradientTransform="matrix(0.33695991,0,0,0.35946912,445.61711,459.47285)"
   xlink:href="#linear-gradient-7"
   y2="729.52002"
   x2="962.54999"
   y1="757.51001"
   x1="962.54999"
   id="linear-gradient-9-3" /><linearGradient
   xlink:href="#linear-gradient-7"
   y2="729.20001"
   x2="889.65002"
   y1="758.78998"
   x1="915.48999"
   id="linear-gradient-8-4" /><linearGradient
   gradientTransform="matrix(0.33695991,0,0,0.35946912,445.61711,459.47285)"
   xlink:href="#Red_2"
   y2="750.95001"
   x2="698.33002"
   y1="750.95001"
   x1="690.76001"
   id="Red_2-137-5" /><linearGradient
   gradientTransform="matrix(0.33695991,0,0,0.35946912,445.61711,459.47285)"
   xlink:href="#Red_2"
   y2="750.95001"
   x2="656.63"
   y1="750.95001"
   x1="647.82001"
   id="Red_2-136-2" /><linearGradient
   gradientTransform="matrix(0.33695991,0,0,0.35946912,445.61711,459.47285)"
   xlink:href="#Red_2"
   y2="770.91998"
   x2="362.97"
   y1="730.59998"
   x1="362.97"
   id="Red_2-135-5" /><linearGradient
   gradientTransform="matrix(0.33695991,0,0,0.35946912,445.61711,459.47285)"
   xlink:href="#Red_2"
   y2="654.37"
   x2="709.66998"
   y1="654.37"
   x1="309.22"
   id="Red_2-134-4" /><linearGradient
   gradientTransform="matrix(0.33695991,0,0,0.35946912,445.61711,459.47285)"
   xlink:href="#Red_2"
   y2="662.39001"
   x2="718.38"
   y1="646.20001"
   x1="718.38"
   id="Red_2-133-7" /><linearGradient
   gradientTransform="matrix(0.33695991,0,0,0.35946912,445.61711,459.47285)"
   xlink:href="#Red_2"
   y2="541.53998"
   x2="304.88"
   y1="541.53998"
   x1="1141.5"
   id="Red_2-91-9" /><linearGradient
   gradientTransform="matrix(0.33695991,0,0,0.35946912,445.61711,459.47285)"
   xlink:href="#Red_2"
   y2="532.56"
   x2="304.88"
   y1="532.56"
   x1="1141.5"
   id="Red_2-90-2" /><linearGradient
   gradientTransform="matrix(0.33695991,0,0,0.35946912,445.61711,459.47285)"
   xlink:href="#Red_2"
   y2="566.84003"
   x2="304.88"
   y1="566.84003"
   x1="1141.5"
   id="Red_2-37-7" /><linearGradient
   gradientTransform="matrix(0.33695991,0,0,0.35946912,445.61711,459.47285)"
   xlink:href="#Red_2"
   y2="543.35999"
   x2="304.88"
   y1="543.35999"
   x1="1141.5"
   id="Red_2-25-9" /><linearGradient
   gradientTransform="matrix(0.33695991,0,0,0.35946912,445.61711,459.47285)"
   xlink:href="#Red_2"
   y2="528.71997"
   x2="304.88"
   y1="528.71997"
   x1="1141.5"
   id="Red_2-23-8" /><linearGradient
   gradientTransform="matrix(0.33695991,0,0,0.35946912,445.61711,459.47285)"
   xlink:href="#Red_2"
   y2="540.89001"
   x2="304.88"
   y1="540.89001"
   x1="1141.5"
   id="Red_2-22-2" /><linearGradient
   gradientTransform="matrix(0.33695991,0,0,0.35946912,445.61711,459.47285)"
   xlink:href="#Red_2"
   y2="523.92999"
   x2="304.88"
   y1="523.92999"
   x1="1141.5"
   id="Red_2-21-2" /><linearGradient
   gradientTransform="matrix(0.33695991,0,0,0.35946912,445.61711,459.47285)"
   xlink:href="#Red_2"
   y2="521.03003"
   x2="304.88"
   y1="521.03003"
   x1="1141.5"
   id="Red_2-18-9" /><linearGradient
   gradientTransform="matrix(0.33695991,0,0,0.35946912,445.61711,459.47285)"
   xlink:href="#Red_2"
   y2="535.53003"
   x2="304.88"
   y1="535.53003"
   x1="1141.5"
   id="Red_2-17-5" /><linearGradient
   gradientTransform="matrix(0.33695991,0,0,0.35946912,445.61711,459.47285)"
   xlink:href="#Red_2"
   y2="527.40997"
   x2="304.88"
   y1="527.40997"
   x1="1141.5"
   id="Red_2-16-7" /><linearGradient
   gradientTransform="matrix(0.33695991,0,0,0.35946912,445.61711,459.47285)"
   xlink:href="#Red_2"
   y2="498.42001"
   x2="304.88"
   y1="498.42001"
   x1="1141.5"
   id="Red_2-14-3" /><linearGradient
   gradientTransform="matrix(0.33695991,0,0,0.35946912,445.61711,459.47285)"
   xlink:href="#Red_2"
   y2="507.26001"
   x2="304.88"
   y1="507.26001"
   x1="1141.5"
   id="Red_2-13-2" /><linearGradient
   gradientTransform="matrix(0.33695991,0,0,0.35946912,445.61711,459.47285)"
   xlink:href="#Red_2"
   y2="491.32001"
   x2="304.88"
   y1="491.32001"
   x1="1141.5"
   id="Red_2-12-0" /><linearGradient
   gradientTransform="matrix(0.33695991,0,0,0.35946912,445.61711,459.47285)"
   xlink:href="#Red_2"
   y2="503.06"
   x2="304.88"
   y1="503.06"
   x1="1141.5"
   id="Red_2-11-2" /><linearGradient
   gradientTransform="matrix(0.33695991,0,0,0.35946912,445.61711,459.47285)"
   xlink:href="#Red_2"
   y2="495.67001"
   x2="304.88"
   y1="495.67001"
   x1="1141.5"
   id="Red_2-10-9" /><linearGradient
   gradientTransform="matrix(0.33695991,0,0,0.35946912,445.61711,459.47285)"
   xlink:href="#Red_2"
   y2="488.85001"
   x2="304.88"
   y1="488.85001"
   x1="1141.5"
   id="Red_2-8-7" /><linearGradient
   gradientUnits="userSpaceOnUse"
   y2="397.20999"
   x2="175.07001"
   y1="397.20999"
   x1="134.77"
   id="linearGradient1682-0"
   gradientTransform="translate(137.68486,390.72837)"><stop
     id="stop1676"
     stop-color="#fce6f0"
     offset="0.01" /><stop
     id="stop1678"
     stop-color="#f9c9de"
     offset="0.45" /><stop
     id="stop1680"
     stop-color="#f7b2d0"
     offset="1" /></linearGradient><linearGradient
   y2="532.19"
   x2="304.88"
   y1="532.19"
   x1="1141.5"
   gradientTransform="matrix(0.33695991,0,0,0.35946912,461.62488,567.99375)"
   id="linearGradient1698-5"
   xlink:href="#Red_2" /><linearGradient
   gradientUnits="userSpaceOnUse"
   y2="397.20999"
   x2="175.07001"
   y1="397.20999"
   x1="134.77"
   id="linearGradient1682-0-2"
   gradientTransform="matrix(0.47286823,0,0,0.49813871,323.45348,482.8698)"><stop
     id="stop1676-4"
     stop-color="#fce6f0"
     offset="0.01" /><stop
     id="stop1678-0"
     stop-color="#f9c9de"
     offset="0.45" /><stop
     id="stop1680-6"
     stop-color="#f7b2d0"
     offset="1" /></linearGradient>

	<defs
   id="defs3">
		<rect
   id="XMLID_11_"
   y="-0.2"
   width="1400"
   height="980.40002"
   x="0" />
	</defs>
	<clipPath
   id="XMLID_20_">
		<use
   xlink:href="#XMLID_11_"
   overflow="visible"
   id="use5"
   style="overflow:visible"
   x="0"
   y="0"
   width="100%"
   height="100%" />
	</clipPath>
	


<clipPath
   id="clipPath1529"
   clipPathUnits="userSpaceOnUse"><g
     transform="translate(47.86315,18.80789)"
     id="g1535"><rect
       clip-path="none"
       y="496"
       x="610"
       height="69.999985"
       width="400"
       id="rect1531"
       style="fill:#a1a1a1;fill-opacity:0.67094014;stroke-width:1.26491094" /><rect
       clip-path="none"
       y="617.00006"
       x="610"
       height="69.999985"
       width="400"
       id="rect1533"
       style="display:inline;fill:#a1a1a1;fill-opacity:0.67094014;stroke-width:1.26491094" /></g></clipPath></defs>
<flowRoot
   transform="translate(-675.23749,-547.55615)"
   xml:space="preserve"
   id="flowRoot2680"
   style="font-style:normal;font-weight:normal;font-size:40px;line-height:1.25;font-family:sans-serif;letter-spacing:0px;word-spacing:0px;fill:#000000;fill-opacity:1;stroke:none"><flowRegion
     id="flowRegion2682"><rect
       id="rect2684"
       width="66.181145"
       height="57.356991"
       x="494.6716"
       y="783.01379" /></flowRegion><flowPara
     id="flowPara2686" /></flowRoot><flowRoot
   transform="translate(-675.23749,-547.55615)"
   xml:space="preserve"
   id="flowRoot3521"
   style="font-style:normal;font-weight:normal;font-size:40px;line-height:1.25;font-family:sans-serif;letter-spacing:0px;word-spacing:0px;fill:#000000;fill-opacity:1;stroke:none"><flowRegion
     id="flowRegion3523"><rect
       id="rect3525"
       width="136.77437"
       height="100.69915"
       x="532.04449"
       y="789.50214" /></flowRegion><flowPara
     id="flowPara3527">openaudiosearch</flowPara></flowRoot><g
   id="g4311"
   transform="translate(-577.4113,-564.91083)" /><flowRoot
   xml:space="preserve"
   id="flowRoot3529"
   style="font-style:normal;font-weight:normal;font-size:40px;line-height:1.25;font-family:sans-serif;letter-spacing:0px;word-spacing:0px;fill:#ffffff;fill-opacity:1;stroke:none"
   transform="matrix(0.12995224,0,0,0.1764497,-161.45591,129.04853)"><flowRegion
     id="flowRegion3531"
     style="fill:#ffffff"><rect
       id="rect3533"
       width="406.68958"
       height="64.623924"
       x="497.52649"
       y="750.3125"
       style="fill:#ffffff" /></flowRegion><flowPara
     id="flowPara3535" /></flowRoot><flowRoot
   transform="translate(-675.23749,-547.55615)"
   xml:space="preserve"
   id="flowRoot8020"
   style="font-style:normal;font-weight:normal;font-size:10.66666698px;line-height:1.25;font-family:sans-serif;letter-spacing:0px;word-spacing:0px;fill:#000000;fill-opacity:1;stroke:none"><flowRegion
     id="flowRegion8022"
     style="font-size:10.66666698px"><rect
       id="rect8024"
       width="60"
       height="41"
       x="682"
       y="763"
       style="font-size:10.66666698px" /></flowRegion><flowPara
     id="flowPara8026" /></flowRoot><rect
   style="opacity:1;fill:#9672eb;fill-opacity:0;stroke-width:3.67218566"
   id="rect3537"
   width="354.21182"
   height="52.066216"
   x="23.978258"
   y="-201.1651" />
<g
   style="display:inline"
   transform="translate(-675.23749,-547.55615)"
   id="layer1"><rect
   id="rect286-1"
   height="36.849968"
   width="5.8304672"
   y="569.54108"
   x="1027.4463"
   class="cls-29"
   style="fill:#9672eb;fill-opacity:0.97863243;stroke-width:0.60513914" /><rect
   id="rect288-2"
   height="31.232115"
   width="5.8304672"
   y="575.15894"
   x="1016.0847"
   class="cls-39"
   style="fill:#9672eb;fill-opacity:0.97863243;stroke-width:0.60513914" /><rect
   id="rect290-8"
   height="23.216648"
   width="6.0605779"
   y="583.17438"
   x="1004.6081"
   class="cls-37"
   style="fill:#9672eb;fill-opacity:0.97863243;stroke-width:0.60513914" /><rect
   id="rect292-9"
   height="32.374161"
   width="5.8304443"
   y="574.01691"
   x="993.36157"
   class="cls-40"
   style="fill:#9672eb;fill-opacity:0.97863243;stroke-width:0.60513914" /><rect
   id="rect294-3"
   height="48.834972"
   width="5.8304672"
   y="557.55615"
   x="982"
   class="cls-41"
   style="fill:#9672eb;fill-opacity:0.97863243;stroke-width:0.6387198" /><rect
   id="rect296-6"
   height="38.834957"
   width="5.8304672"
   y="567.55615"
   x="970.63843"
   class="cls-42"
   style="fill:#9672eb;fill-opacity:0.97863243;stroke-width:0.69005793" /><rect
   id="rect298-8"
   height="36.166401"
   width="5.8304672"
   y="570.22461"
   x="959.27686"
   class="cls-43"
   style="fill:#9672eb;fill-opacity:0.97863243;stroke-width:0.60513914" /><rect
   id="rect300-0"
   height="53.834991"
   width="5.8304672"
   y="552.55615"
   x="947.91528"
   class="cls-44"
   style="fill:#9672eb;fill-opacity:0.97863243;stroke-width:0.6495772" /><rect
   id="rect302-2"
   height="41.17664"
   width="5.8304672"
   y="565.21448"
   x="936.55371"
   class="cls-45"
   style="fill:#9672eb;fill-opacity:0.97863243;stroke-width:0.60513914" /><rect
   id="rect304-1"
   height="28.140814"
   width="5.9931731"
   y="578.25018"
   x="925.11078"
   class="cls-46"
   style="fill:#9672eb;fill-opacity:0.97863243;stroke-width:0.60513914" /><rect
   id="rect306-0"
   height="20.006161"
   width="6.0606089"
   y="586.38495"
   x="913.71545"
   class="cls-47"
   style="fill:#9672eb;fill-opacity:0.97863243;stroke-width:0.60513914" /><rect
   id="rect308-5"
   height="41.860203"
   width="5.8304672"
   y="564.53088"
   x="902.46899"
   class="cls-48"
   style="fill:#9672eb;fill-opacity:0.97863243;stroke-width:0.60513914" /><rect
   id="rect310-1"
   height="53.83493"
   width="5.8304672"
   y="552.55615"
   x="891.10742"
   class="cls-49"
   style="fill:#9672eb;fill-opacity:0.97863243;stroke-width:0.652233" /><rect
   id="rect312-1"
   height="43.834972"
   width="5.8304672"
   y="562.55615"
   x="879.74585"
   class="cls-45"
   style="fill:#9672eb;fill-opacity:0.97863243;stroke-width:0.6243673" /><rect
   id="rect314-0"
   height="48.834972"
   width="5.8304672"
   y="557.55615"
   x="868.38428"
   class="cls-41"
   style="fill:#9672eb;fill-opacity:0.97863243;stroke-width:0.6387198" /><rect
   id="rect316-8"
   height="31.925278"
   width="5.8304443"
   y="574.46576"
   x="857.02271"
   class="cls-38"
   style="fill:#9672eb;fill-opacity:0.97863243;stroke-width:0.60513914" /><rect
   id="rect302-2-3"
   height="41.17664"
   width="5.8304672"
   y="565.21448"
   x="845.66113"
   class="cls-45"
   style="fill:#9672eb;fill-opacity:0.97863243;stroke-width:0.60513914" /><rect
   id="rect304-1-4"
   height="24.667742"
   width="5.8304443"
   y="581.72333"
   x="834.29956"
   class="cls-46"
   style="fill:#9672eb;fill-opacity:0.97863243;stroke-width:0.60513914" /><rect
   id="rect306-0-0"
   height="38.834942"
   width="5.8304672"
   y="567.55615"
   x="822.93799"
   class="cls-47"
   style="fill:#9672eb;fill-opacity:0.97863243;stroke-width:0.65072912" /><rect
   id="rect308-5-3"
   height="53.834942"
   width="5.8304672"
   y="552.55615"
   x="811.57642"
   class="cls-48"
   style="fill:#9672eb;fill-opacity:0.97863243;stroke-width:0.68625683" /><rect
   id="rect312-1-9"
   height="58.834972"
   width="5.8304672"
   y="547.55615"
   x="800.21478"
   class="cls-45"
   style="fill:#9672eb;fill-opacity:0.97863243;stroke-width:0.72334844" /><rect
   id="rect314-0-1"
   height="53.834972"
   width="5.8304672"
   y="552.55615"
   x="788.85321"
   class="cls-41"
   style="fill:#9672eb;fill-opacity:0.97863243;stroke-width:0.67062098" /><rect
   id="rect316-8-9"
   height="33.834904"
   width="5.8304672"
   y="572.55615"
   x="777.49164"
   class="cls-38"
   style="fill:#9672eb;fill-opacity:0.97863243;stroke-width:0.56826037" /><rect
   id="rect282-4-2"
   height="38.897018"
   width="5.8304672"
   y="567.55615"
   x="766.13007"
   class="cls-37"
   style="fill:#9672eb;fill-opacity:0.97863243;stroke-width:0.64047599" /><rect
   id="rect284-8-8"
   height="43.897099"
   width="5.8304672"
   y="562.55615"
   x="754.76849"
   class="cls-38"
   style="fill:#9672eb;fill-opacity:0.97863243;stroke-width:0.64726603" /><rect
   id="rect286-1-9"
   height="27.874765"
   width="5.8304443"
   y="578.57849"
   x="743.40692"
   class="cls-29"
   style="fill:#9672eb;fill-opacity:0.97863243;stroke-width:0.60513914" /><rect
   id="rect288-2-3"
   height="21.79664"
   width="5.8304443"
   y="584.65656"
   x="732.04535"
   class="cls-39"
   style="fill:#9672eb;fill-opacity:0.97863243;stroke-width:0.60513914" /><rect
   id="rect290-8-6"
   height="34.723305"
   width="5.8304672"
   y="571.72986"
   x="720.68378"
   class="cls-37"
   style="fill:#9672eb;fill-opacity:0.97863243;stroke-width:0.60513914" /><rect
   id="rect292-9-8"
   height="39.508308"
   width="5.8304672"
   y="566.94495"
   x="709.3222"
   class="cls-40"
   style="fill:#9672eb;fill-opacity:0.97863243;stroke-width:0.60513914" /><rect
   id="rect294-3-0"
   height="43.834965"
   width="5.8304672"
   y="562.55615"
   x="697.96063"
   class="cls-41"
   style="fill:#9672eb;fill-opacity:0.97863243;stroke-width:0.60513914" /><rect
   id="rect296-6-2"
   height="29.864979"
   width="5.8304672"
   y="576.52612"
   x="686.59906"
   class="cls-42"
   style="fill:#9672eb;fill-opacity:0.97863243;stroke-width:0.60513914" /><rect
   id="rect298-8-1"
   height="36.166401"
   width="5.8304672"
   y="570.2868"
   x="675.23749"
   class="cls-43"
   style="fill:#9672eb;fill-opacity:0.97863243;stroke-width:0.60513914" /><g
   id="text8030"
   style="font-style:normal;font-variant:normal;font-weight:normal;font-stretch:normal;font-size:122.27583313px;line-height:1.25;font-family:'DejaVu Sans Mono';-inkscape-font-specification:'DejaVu Sans Mono';letter-spacing:0px;word-spacing:0px;display:inline;fill:#9672eb;fill-opacity:1;stroke:none;stroke-width:7.64223957"
   transform="scale(0.97588186,1.0247142)"
   aria-label="open audio search"><path
     id="path979"
     style="font-style:normal;font-variant:normal;font-weight:bold;font-stretch:normal;font-size:40.75861359px;font-family:Rubik;-inkscape-font-specification:'Rubik Bold';font-variant-ligatures:normal;font-variant-caps:normal;font-variant-numeric:normal;font-feature-settings:normal;text-align:start;writing-mode:lr-tb;text-anchor:start;fill:#9672eb;fill-opacity:1;stroke-width:7.64223957"
     d="m 702.72648,632.30615 q -3.42372,0 -5.78772,-1.10049 -2.32324,-1.10048 -3.58676,-3.13841 -1.22276,-2.07869 -1.38579,-4.93179 -0.0408,-0.81517 -0.0408,-1.83414 0,-1.05972 0.0408,-1.83414 0.16303,-2.89386 1.46731,-4.93179 1.30427,-2.03793 3.62751,-3.13841 2.364,-1.10049 5.66545,-1.10049 3.34221,0 5.66545,1.10049 2.364,1.10048 3.66827,3.13841 1.30428,2.03793 1.46731,4.93179 0.0408,0.77442 0.0408,1.83414 0,1.01897 -0.0408,1.83414 -0.16303,2.8531 -1.42655,4.93179 -1.22276,2.03793 -3.58675,3.13841 -2.32325,1.10049 -5.78773,1.10049 z m 0,-4.97256 q 1.83414,0 2.64931,-1.10048 0.85593,-1.10048 0.97821,-3.30145 0.0408,-0.61137 0.0408,-1.63034 0,-1.01897 -0.0408,-1.63034 -0.12228,-2.16021 -0.97821,-3.26069 -0.81517,-1.14124 -2.64931,-1.14124 -1.79338,0 -2.64931,1.14124 -0.85593,1.10048 -0.93745,3.26069 -0.0408,0.61137 -0.0408,1.63034 0,1.01897 0.0408,1.63034 0.0815,2.20097 0.93745,3.30145 0.85593,1.10048 2.64931,1.10048 z" /><path
     id="path981"
     style="font-style:normal;font-variant:normal;font-weight:bold;font-stretch:normal;font-size:40.75861359px;font-family:Rubik;-inkscape-font-specification:'Rubik Bold';font-variant-ligatures:normal;font-variant-caps:normal;font-variant-numeric:normal;font-feature-settings:normal;text-align:start;writing-mode:lr-tb;text-anchor:start;fill:#9672eb;fill-opacity:1;stroke-width:7.64223957"
     d="m 718.62227,639.6427 q -0.44835,0 -0.73366,-0.28531 -0.28531,-0.28531 -0.28531,-0.73366 v -26.90068 q 0,-0.44835 0.28531,-0.73366 0.28531,-0.28531 0.73366,-0.28531 h 4.60572 q 0.40759,0 0.6929,0.28531 0.32607,0.28531 0.32607,0.73366 v 1.50806 q 0.93744,-1.26351 2.48627,-2.07868 1.54883,-0.85594 3.83131,-0.85594 2.03793,0 3.58676,0.65214 1.54883,0.61138 2.64931,1.83414 1.10048,1.22276 1.71186,2.97538 0.65214,1.75262 0.73366,4.0351 0.0408,0.81517 0.0408,1.50807 0,0.6929 -0.0408,1.50807 -0.0815,2.20096 -0.6929,3.95358 -0.61138,1.75262 -1.71186,2.97538 -1.10049,1.22276 -2.69007,1.91566 -1.54883,0.65214 -3.58676,0.65214 -1.99717,0 -3.50524,-0.6929 -1.46731,-0.73366 -2.44552,-2.03793 v 9.04841 q 0,0.44835 -0.28531,0.73366 -0.28531,0.28531 -0.73365,0.28531 z m 9.74131,-12.79821 q 1.38579,0 2.1602,-0.57062 0.77442,-0.57062 1.10048,-1.54883 0.36683,-0.9782 0.44835,-2.1602 0.0815,-1.26352 0,-2.52704 -0.0815,-1.182 -0.44835,-2.1602 -0.32606,-0.97821 -1.10048,-1.54883 -0.77441,-0.57062 -2.1602,-0.57062 -1.34504,0 -2.16021,0.61138 -0.81517,0.57062 -1.182,1.50807 -0.36683,0.93744 -0.40759,2.03793 -0.0408,0.77441 -0.0408,1.50807 0,0.73365 0.0408,1.54882 0.0408,1.01897 0.44835,1.91566 0.40758,0.85593 1.22276,1.42655 0.81517,0.52986 2.07869,0.52986 z" /><path
     id="path983"
     style="font-style:normal;font-variant:normal;font-weight:bold;font-stretch:normal;font-size:40.75861359px;font-family:Rubik;-inkscape-font-specification:'Rubik Bold';font-variant-ligatures:normal;font-variant-caps:normal;font-variant-numeric:normal;font-feature-settings:normal;text-align:start;writing-mode:lr-tb;text-anchor:start;fill:#9672eb;fill-opacity:1;stroke-width:7.64223957"
     d="m 753.104,632.30615 q -4.80952,0 -7.66262,-2.60856 -2.85311,-2.60855 -2.97538,-7.74413 0,-0.28531 0,-0.73366 0,-0.44834 0,-0.69289 0.12227,-3.21993 1.42655,-5.50242 1.34503,-2.32324 3.66828,-3.50524 2.364,-1.22276 5.50241,-1.22276 3.58676,0 5.91,1.42656 2.364,1.42655 3.546,3.87206 1.182,2.44552 1.182,5.58393 v 0.97821 q 0,0.44835 -0.32607,0.73366 -0.28531,0.28531 -0.6929,0.28531 h -13.04276 q 0,0.0408 0,0.12227 0,0.0815 0,0.16304 0.0408,1.182 0.40759,2.1602 0.36683,0.97821 1.14124,1.54883 0.77442,0.57062 1.8749,0.57062 0.81517,0 1.34503,-0.24455 0.57062,-0.28531 0.93745,-0.61138 0.36683,-0.36683 0.57062,-0.61138 0.36683,-0.40759 0.57062,-0.4891 0.24455,-0.12228 0.73366,-0.12228 h 5.05406 q 0.40759,0 0.65214,0.24455 0.28531,0.2038 0.24455,0.61138 -0.0408,0.6929 -0.69289,1.67111 -0.65214,0.9782 -1.91566,1.95641 -1.22276,0.93745 -3.09765,1.54883 -1.8749,0.61138 -4.36117,0.61138 z m -3.46449,-13.16504 h 6.88821 v -0.0815 q 0,-1.30428 -0.40759,-2.28249 -0.36682,-0.9782 -1.182,-1.50806 -0.77441,-0.52987 -1.87489,-0.52987 -1.10048,0 -1.8749,0.52987 -0.73365,0.52986 -1.14124,1.50806 -0.40759,0.97821 -0.40759,2.28249 z" /><path
     id="path985"
     style="font-style:normal;font-variant:normal;font-weight:bold;font-stretch:normal;font-size:40.75861359px;font-family:Rubik;-inkscape-font-specification:'Rubik Bold';font-variant-ligatures:normal;font-variant-caps:normal;font-variant-numeric:normal;font-feature-settings:normal;text-align:start;writing-mode:lr-tb;text-anchor:start;fill:#9672eb;fill-opacity:1;stroke-width:7.64223957"
     d="m 768.55151,631.89856 q -0.44835,0 -0.73366,-0.28531 -0.28531,-0.28531 -0.28531,-0.73366 v -19.15654 q 0,-0.44835 0.28531,-0.73366 0.28531,-0.28531 0.73366,-0.28531 h 4.68724 q 0.44834,0 0.73365,0.28531 0.28531,0.28531 0.28531,0.73366 v 1.54882 q 1.05973,-1.26351 2.77159,-2.11944 1.71186,-0.85594 4.0351,-0.85594 2.364,0 4.15738,1.05973 1.83414,1.05972 2.8531,3.13841 1.05973,2.03793 1.05973,5.01331 v 11.37165 q 0,0.44835 -0.32607,0.73366 -0.28531,0.28531 -0.6929,0.28531 h -5.13558 q -0.40759,0 -0.73366,-0.28531 -0.28531,-0.28531 -0.28531,-0.73366 v -11.1271 q 0,-1.91565 -0.93745,-2.93462 -0.89669,-1.05972 -2.69006,-1.05972 -1.67111,0 -2.69007,1.05972 -0.97821,1.01897 -0.97821,2.93462 v 11.1271 q 0,0.44835 -0.32607,0.73366 -0.28531,0.28531 -0.6929,0.28531 z" /><path
     id="path987"
     style="font-style:normal;font-variant:normal;font-weight:bold;font-stretch:normal;font-size:40.75861359px;font-family:Rubik;-inkscape-font-specification:'Rubik Bold';font-variant-ligatures:normal;font-variant-caps:normal;font-variant-numeric:normal;font-feature-settings:normal;text-align:start;writing-mode:lr-tb;text-anchor:start;fill:#9672eb;fill-opacity:1;stroke-width:7.64223957"
     d="m 808.78021,632.30615 q -2.20096,0 -3.95358,-0.81518 -1.71186,-0.85593 -2.73083,-2.28248 -1.01896,-1.42655 -1.01896,-3.21993 0,-2.89386 2.364,-4.56496 2.364,-1.71187 6.27682,-2.32325 l 5.09483,-0.77441 v -0.57062 q 0,-1.46731 -0.61138,-2.24172 -0.61138,-0.77442 -2.24172,-0.77442 -1.14124,0 -1.8749,0.44835 -0.6929,0.44834 -1.10048,1.22276 -0.36683,0.52986 -1.01897,0.52986 h -4.56496 q -0.44835,0 -0.6929,-0.24455 -0.24455,-0.28531 -0.20379,-0.65214 0,-0.73366 0.52986,-1.6711 0.57062,-0.97821 1.71186,-1.91566 1.14124,-0.93745 2.93462,-1.54883 1.79338,-0.61138 4.32042,-0.61138 2.64931,0 4.5242,0.61138 1.8749,0.61138 3.01614,1.71187 1.182,1.10048 1.75262,2.60855 0.57062,1.46731 0.57062,3.26069 v 12.39061 q 0,0.44835 -0.32607,0.73366 -0.28531,0.28531 -0.6929,0.28531 h -4.72799 q -0.44835,0 -0.73366,-0.28531 -0.28531,-0.28531 -0.28531,-0.73366 v -1.42655 q -0.52986,0.77442 -1.42655,1.42655 -0.89669,0.65214 -2.11945,1.01897 -1.182,0.40759 -2.77159,0.40759 z m 1.91566,-4.64649 q 1.182,0 2.11945,-0.4891 0.9782,-0.52986 1.50807,-1.58959 0.57062,-1.10048 0.57062,-2.73082 v -0.57062 l -3.46449,0.61138 q -1.91565,0.32606 -2.81234,1.01896 -0.85593,0.65214 -0.85593,1.54883 0,0.6929 0.40759,1.182 0.40758,0.4891 1.05972,0.77441 0.65214,0.24455 1.46731,0.24455 z" /><path
     id="path989"
     style="font-style:normal;font-variant:normal;font-weight:bold;font-stretch:normal;font-size:40.75861359px;font-family:Rubik;-inkscape-font-specification:'Rubik Bold';font-variant-ligatures:normal;font-variant-caps:normal;font-variant-numeric:normal;font-feature-settings:normal;text-align:start;writing-mode:lr-tb;text-anchor:start;fill:#9672eb;fill-opacity:1;stroke-width:7.64223957"
     d="m 834.25427,632.30615 q -2.32324,0 -4.15737,-1.05973 -1.79338,-1.05972 -2.81235,-3.09765 -1.01896,-2.07869 -1.01896,-5.05407 v -11.37165 q 0,-0.44835 0.28531,-0.73366 0.28531,-0.28531 0.73365,-0.28531 h 5.09483 q 0.44834,0 0.73365,0.28531 0.28531,0.28531 0.28531,0.73366 v 11.1271 q 0,3.99434 3.58676,3.99434 1.6711,0 2.64931,-1.01896 1.01897,-1.05973 1.01897,-2.97538 v -11.1271 q 0,-0.44835 0.28531,-0.73366 0.28531,-0.28531 0.73365,-0.28531 h 5.09483 q 0.44834,0 0.73365,0.28531 0.28531,0.28531 0.28531,0.73366 v 19.15654 q 0,0.44835 -0.28531,0.73366 -0.28531,0.28531 -0.73365,0.28531 h -4.728 q -0.40759,0 -0.73366,-0.28531 -0.28531,-0.28531 -0.28531,-0.73366 v -1.54882 q -1.05972,1.46731 -2.77158,2.24172 -1.6711,0.73366 -3.99435,0.73366 z" /><path
     id="path991"
     style="font-style:normal;font-variant:normal;font-weight:bold;font-stretch:normal;font-size:40.75861359px;font-family:Rubik;-inkscape-font-specification:'Rubik Bold';font-variant-ligatures:normal;font-variant-caps:normal;font-variant-numeric:normal;font-feature-settings:normal;text-align:start;writing-mode:lr-tb;text-anchor:start;fill:#9672eb;fill-opacity:1;stroke-width:7.64223957"
     d="m 860.50279,632.30615 q -1.95642,0 -3.546,-0.61138 -1.54883,-0.65214 -2.69007,-1.8749 -1.10048,-1.26352 -1.71186,-3.01614 -0.61138,-1.79338 -0.6929,-4.07586 -0.0408,-0.81517 -0.0408,-1.42655 0,-0.65214 0.0408,-1.42655 0.0815,-2.20097 0.6929,-3.95359 0.61138,-1.75262 1.71186,-3.01613 1.10048,-1.26352 2.69007,-1.91566 1.58958,-0.6929 3.546,-0.6929 2.03793,0 3.50524,0.6929 1.46731,0.65214 2.48627,1.71186 v -8.72234 q 0,-0.44835 0.28531,-0.73366 0.28531,-0.28531 0.73366,-0.28531 h 4.97255 q 0.40758,0 0.69289,0.28531 0.32607,0.28531 0.32607,0.73366 v 26.90068 q 0,0.44835 -0.32607,0.73366 -0.28531,0.28531 -0.69289,0.28531 h -4.60572 q -0.44835,0 -0.73366,-0.28531 -0.28531,-0.28531 -0.28531,-0.73366 v -1.30427 q -0.97821,1.182 -2.52703,1.95641 -1.54883,0.77442 -3.83131,0.77442 z m 2.20096,-5.46166 q 1.38579,0 2.16021,-0.57062 0.81517,-0.61138 1.182,-1.54883 0.40758,-0.93744 0.44834,-2.03793 0.0408,-0.81517 0.0408,-1.54882 0,-0.73366 -0.0408,-1.50807 -0.0408,-1.01897 -0.44834,-1.8749 -0.40759,-0.89669 -1.22276,-1.42655 -0.81517,-0.57062 -2.11945,-0.57062 -1.34503,0 -2.16021,0.57062 -0.77441,0.57062 -1.10048,1.54883 -0.32607,0.9782 -0.40758,2.1602 -0.12228,1.26352 0,2.52704 0.0815,1.182 0.40758,2.1602 0.32607,0.97821 1.10048,1.54883 0.81518,0.57062 2.16021,0.57062 z" /><path
     id="path993"
     style="font-style:normal;font-variant:normal;font-weight:bold;font-stretch:normal;font-size:40.75861359px;font-family:Rubik;-inkscape-font-specification:'Rubik Bold';font-variant-ligatures:normal;font-variant-caps:normal;font-variant-numeric:normal;font-feature-settings:normal;text-align:start;writing-mode:lr-tb;text-anchor:start;fill:#9672eb;fill-opacity:1;stroke-width:7.64223957"
     d="m 879.33321,631.89856 q -0.44835,0 -0.73366,-0.28531 -0.28531,-0.28531 -0.28531,-0.73366 v -19.15654 q 0,-0.44835 0.28531,-0.73366 0.28531,-0.28531 0.73366,-0.28531 h 4.80951 q 0.40759,0 0.6929,0.28531 0.32607,0.28531 0.32607,0.73366 v 19.15654 q 0,0.44835 -0.32607,0.73366 -0.28531,0.28531 -0.6929,0.28531 z m -0.0408,-24.25138 q -0.44834,0 -0.73366,-0.28531 -0.28531,-0.28531 -0.28531,-0.73365 v -3.62752 q 0,-0.44834 0.28531,-0.73365 0.28532,-0.32607 0.73366,-0.32607 h 4.85027 q 0.44835,0 0.73366,0.32607 0.32607,0.28531 0.32607,0.73365 v 3.62752 q 0,0.44834 -0.32607,0.73365 -0.28531,0.28531 -0.73366,0.28531 z" /><path
     id="path995"
     style="font-style:normal;font-variant:normal;font-weight:bold;font-stretch:normal;font-size:40.75861359px;font-family:Rubik;-inkscape-font-specification:'Rubik Bold';font-variant-ligatures:normal;font-variant-caps:normal;font-variant-numeric:normal;font-feature-settings:normal;text-align:start;writing-mode:lr-tb;text-anchor:start;fill:#9672eb;fill-opacity:1;stroke-width:7.64223957"
     d="m 900.20155,632.30615 q -3.42372,0 -5.78772,-1.10049 -2.32324,-1.10048 -3.58676,-3.13841 -1.22276,-2.07869 -1.38579,-4.93179 -0.0408,-0.81517 -0.0408,-1.83414 0,-1.05972 0.0408,-1.83414 0.16303,-2.89386 1.46731,-4.93179 1.30427,-2.03793 3.62751,-3.13841 2.364,-1.10049 5.66545,-1.10049 3.34221,0 5.66545,1.10049 2.364,1.10048 3.66827,3.13841 1.30428,2.03793 1.46731,4.93179 0.0408,0.77442 0.0408,1.83414 0,1.01897 -0.0408,1.83414 -0.16303,2.8531 -1.42655,4.93179 -1.22276,2.03793 -3.58676,3.13841 -2.32324,1.10049 -5.78772,1.10049 z m 0,-4.97256 q 1.83414,0 2.64931,-1.10048 0.85593,-1.10048 0.97821,-3.30145 0.0408,-0.61137 0.0408,-1.63034 0,-1.01897 -0.0408,-1.63034 -0.12228,-2.16021 -0.97821,-3.26069 -0.81517,-1.14124 -2.64931,-1.14124 -1.79338,0 -2.64931,1.14124 -0.85593,1.10048 -0.93745,3.26069 -0.0408,0.61137 -0.0408,1.63034 0,1.01897 0.0408,1.63034 0.0815,2.20097 0.93745,3.30145 0.85593,1.10048 2.64931,1.10048 z" /><path
     id="path997"
     style="font-style:normal;font-variant:normal;font-weight:bold;font-stretch:normal;font-size:40.75861359px;font-family:Rubik;-inkscape-font-specification:'Rubik Bold';font-variant-ligatures:normal;font-variant-caps:normal;font-variant-numeric:normal;font-feature-settings:normal;text-align:start;writing-mode:lr-tb;text-anchor:start;fill:#9672eb;fill-opacity:1;stroke-width:7.64223957"
     d="m 932.48227,632.30615 q -2.64931,0 -4.52421,-0.57062 -1.83414,-0.61138 -3.01614,-1.46731 -1.14124,-0.85594 -1.71186,-1.75263 -0.57062,-0.93744 -0.61138,-1.58958 -0.0408,-0.44835 0.28531,-0.73366 0.32607,-0.32607 0.6929,-0.32607 h 4.64648 q 0.12228,0 0.20379,0.0408 0.0815,0.0408 0.24455,0.16304 0.52987,0.28531 1.05973,0.73365 0.52986,0.40759 1.22276,0.73366 0.69289,0.32607 1.6711,0.32607 1.14124,0 1.91565,-0.44835 0.77442,-0.44834 0.77442,-1.34503 0,-0.65214 -0.36683,-1.05973 -0.36683,-0.44834 -1.50807,-0.85593 -1.10048,-0.40758 -3.3422,-0.81517 -2.11945,-0.4891 -3.70904,-1.26352 -1.58958,-0.81517 -2.44552,-2.07869 -0.85593,-1.30427 -0.85593,-3.13841 0,-1.63034 1.05973,-3.13841 1.05972,-1.50807 3.09765,-2.44552 2.03793,-0.97821 5.01331,-0.97821 2.364,0 4.07586,0.57062 1.75262,0.52987 2.93462,1.3858 1.22276,0.85593 1.83414,1.75262 0.61138,0.89669 0.65214,1.63034 0.0408,0.40759 -0.24455,0.73366 -0.28531,0.28531 -0.65214,0.28531 h -4.2389 q -0.16303,0 -0.32607,-0.0408 -0.16303,-0.0815 -0.28531,-0.16303 -0.4891,-0.24456 -0.9782,-0.65214 -0.48911,-0.40759 -1.14124,-0.73366 -0.65214,-0.32607 -1.63035,-0.32607 -1.10048,0 -1.71186,0.48911 -0.61138,0.4891 -0.61138,1.26351 0,0.52987 0.32607,0.97821 0.36683,0.44835 1.42655,0.81517 1.10048,0.36683 3.38297,0.81517 2.81234,0.44835 4.48344,1.46731 1.67111,0.97821 2.364,2.32325 0.6929,1.30427 0.6929,2.77158 0,1.95642 -1.182,3.46448 -1.14124,1.50807 -3.42372,2.364 -2.28249,0.81518 -5.54317,0.81518 z" /><path
     id="path999"
     style="font-style:normal;font-variant:normal;font-weight:bold;font-stretch:normal;font-size:40.75861359px;font-family:Rubik;-inkscape-font-specification:'Rubik Bold';font-variant-ligatures:normal;font-variant-caps:normal;font-variant-numeric:normal;font-feature-settings:normal;text-align:start;writing-mode:lr-tb;text-anchor:start;fill:#9672eb;fill-opacity:1;stroke-width:7.64223957"
     d="m 956.08149,632.30615 q -4.80951,0 -7.66262,-2.60856 -2.8531,-2.60855 -2.97537,-7.74413 0,-0.28531 0,-0.73366 0,-0.44834 0,-0.69289 0.12227,-3.21993 1.42655,-5.50242 1.34503,-2.32324 3.66827,-3.50524 2.364,-1.22276 5.50242,-1.22276 3.58675,0 5.90999,1.42656 2.364,1.42655 3.546,3.87206 1.182,2.44552 1.182,5.58393 v 0.97821 q 0,0.44835 -0.32607,0.73366 -0.28531,0.28531 -0.69289,0.28531 h -13.04276 q 0,0.0408 0,0.12227 0,0.0815 0,0.16304 0.0408,1.182 0.40759,2.1602 0.36683,0.97821 1.14124,1.54883 0.77441,0.57062 1.8749,0.57062 0.81517,0 1.34503,-0.24455 0.57062,-0.28531 0.93745,-0.61138 0.36683,-0.36683 0.57062,-0.61138 0.36683,-0.40759 0.57062,-0.4891 0.24455,-0.12228 0.73365,-0.12228 h 5.05407 q 0.40759,0 0.65214,0.24455 0.28531,0.2038 0.24455,0.61138 -0.0408,0.6929 -0.69289,1.67111 -0.65214,0.9782 -1.91566,1.95641 -1.22276,0.93745 -3.09765,1.54883 -1.8749,0.61138 -4.36118,0.61138 z m -3.46448,-13.16504 h 6.88821 v -0.0815 q 0,-1.30428 -0.40759,-2.28249 -0.36683,-0.9782 -1.182,-1.50806 -0.77441,-0.52987 -1.87489,-0.52987 -1.10049,0 -1.8749,0.52987 -0.73366,0.52986 -1.14124,1.50806 -0.40759,0.97821 -0.40759,2.28249 z" /><path
     id="path1001"
     style="font-style:normal;font-variant:normal;font-weight:bold;font-stretch:normal;font-size:40.75861359px;font-family:Rubik;-inkscape-font-specification:'Rubik Bold';font-variant-ligatures:normal;font-variant-caps:normal;font-variant-numeric:normal;font-feature-settings:normal;text-align:start;writing-mode:lr-tb;text-anchor:start;fill:#9672eb;fill-opacity:1;stroke-width:7.64223957"
     d="m 976.86839,632.30615 q -2.20097,0 -3.95359,-0.81518 -1.71186,-0.85593 -2.73083,-2.28248 -1.01896,-1.42655 -1.01896,-3.21993 0,-2.89386 2.364,-4.56496 2.364,-1.71187 6.27683,-2.32325 l 5.09482,-0.77441 v -0.57062 q 0,-1.46731 -0.61138,-2.24172 -0.61138,-0.77442 -2.24172,-0.77442 -1.14124,0 -1.8749,0.44835 -0.69289,0.44834 -1.10048,1.22276 -0.36683,0.52986 -1.01896,0.52986 h -4.56497 q -0.44834,0 -0.6929,-0.24455 -0.24455,-0.28531 -0.20379,-0.65214 0,-0.73366 0.52986,-1.6711 0.57062,-0.97821 1.71186,-1.91566 1.14125,-0.93745 2.93462,-1.54883 1.79338,-0.61138 4.32042,-0.61138 2.64931,0 4.5242,0.61138 1.8749,0.61138 3.01614,1.71187 1.182,1.10048 1.75262,2.60855 0.57062,1.46731 0.57062,3.26069 v 12.39061 q 0,0.44835 -0.32607,0.73366 -0.28531,0.28531 -0.69289,0.28531 h -4.728 q -0.44835,0 -0.73366,-0.28531 -0.28531,-0.28531 -0.28531,-0.73366 v -1.42655 q -0.52986,0.77442 -1.42655,1.42655 -0.89669,0.65214 -2.11945,1.01897 -1.182,0.40759 -2.77158,0.40759 z m 1.91565,-4.64649 q 1.182,0 2.11945,-0.4891 0.97821,-0.52986 1.50807,-1.58959 0.57062,-1.10048 0.57062,-2.73082 v -0.57062 l -3.46448,0.61138 q -1.91566,0.32606 -2.81235,1.01896 -0.85593,0.65214 -0.85593,1.54883 0,0.6929 0.40759,1.182 0.40758,0.4891 1.05972,0.77441 0.65214,0.24455 1.46731,0.24455 z" /><path
     id="path1003"
     style="font-style:normal;font-variant:normal;font-weight:bold;font-stretch:normal;font-size:40.75861359px;font-family:Rubik;-inkscape-font-specification:'Rubik Bold';font-variant-ligatures:normal;font-variant-caps:normal;font-variant-numeric:normal;font-feature-settings:normal;text-align:start;writing-mode:lr-tb;text-anchor:start;fill:#9672eb;fill-opacity:1;stroke-width:7.64223957"
     d="m 995.57649,631.89856 q -0.44834,0 -0.73365,-0.28531 -0.28531,-0.28531 -0.28531,-0.73366 v -19.15654 q 0,-0.40759 0.28531,-0.6929 0.28531,-0.32607 0.73365,-0.32607 h 4.68721 q 0.4484,0 0.7337,0.32607 0.2853,0.28531 0.2853,0.6929 v 1.63034 q 1.1005,-1.26352 2.6086,-1.95641 1.5488,-0.6929 3.4644,-0.6929 h 1.7934 q 0.4076,0 0.6929,0.28531 0.3261,0.28531 0.3261,0.73366 v 4.19813 q 0,0.40759 -0.3261,0.73366 -0.2853,0.28531 -0.6929,0.28531 h -3.9536 q -1.6711,0 -2.6085,0.93745 -0.8967,0.89669 -0.8967,2.56779 v 10.4342 q 0,0.44835 -0.3261,0.73366 -0.2853,0.28531 -0.7336,0.28531 z" /><path
     id="path1005"
     style="font-style:normal;font-variant:normal;font-weight:bold;font-stretch:normal;font-size:40.75861359px;font-family:Rubik;-inkscape-font-specification:'Rubik Bold';font-variant-ligatures:normal;font-variant-caps:normal;font-variant-numeric:normal;font-feature-settings:normal;text-align:start;writing-mode:lr-tb;text-anchor:start;fill:#9672eb;fill-opacity:1;stroke-width:7.64223957"
     d="m 1022.6197,632.30615 q -3.0161,0 -5.3393,-1.10049 -2.3233,-1.10048 -3.7091,-3.17917 -1.345,-2.11945 -1.4673,-5.05407 -0.041,-0.65213 -0.041,-1.63034 0,-1.01897 0.041,-1.6711 0.1223,-2.97538 1.4673,-5.05407 1.3451,-2.11945 3.6683,-3.21993 2.364,-1.10049 5.3801,-1.10049 2.8124,0 4.8095,0.81518 1.9972,0.77441 3.2607,1.95641 1.2636,1.182 1.8749,2.44552 0.6522,1.22276 0.6929,2.1602 0.041,0.40759 -0.2853,0.73366 -0.3261,0.28531 -0.7336,0.28531 h -5.1764 q -0.4483,0 -0.6929,-0.20379 -0.2445,-0.2038 -0.4483,-0.61138 -0.4891,-1.26352 -1.2635,-1.79338 -0.7337,-0.52986 -1.9157,-0.52986 -1.6303,0 -2.527,1.05972 -0.856,1.05972 -0.9375,3.26069 -0.041,1.63034 0,2.89386 0.082,2.24172 0.9375,3.26069 0.8967,1.01896 2.527,1.01896 1.2635,0 1.9972,-0.52986 0.7336,-0.52986 1.182,-1.79338 0.2038,-0.40758 0.4483,-0.61138 0.2446,-0.20379 0.6929,-0.20379 h 5.1764 q 0.4075,0 0.7336,0.32607 0.3261,0.28531 0.2853,0.6929 -0.041,0.69289 -0.4076,1.63034 -0.3668,0.89669 -1.1412,1.91566 -0.7744,1.01896 -2.0379,1.91565 -1.2228,0.85593 -2.9754,1.38579 -1.7526,0.52987 -4.0759,0.52987 z" /><path
     id="path1007"
     style="font-style:normal;font-variant:normal;font-weight:bold;font-stretch:normal;font-size:40.75861359px;font-family:Rubik;-inkscape-font-specification:'Rubik Bold';font-variant-ligatures:normal;font-variant-caps:normal;font-variant-numeric:normal;font-feature-settings:normal;text-align:start;writing-mode:lr-tb;text-anchor:start;fill:#9672eb;fill-opacity:1;stroke-width:7.64223957"
     d="m 1037.9449,631.89856 q -0.4483,0 -0.7337,-0.28531 -0.2853,-0.28531 -0.2853,-0.73366 v -26.90068 q 0,-0.44835 0.2853,-0.73366 0.2854,-0.28531 0.7337,-0.28531 h 5.2171 q 0.4484,0 0.7337,0.28531 0.2853,0.28531 0.2853,0.73366 v 9.08917 q 1.1005,-1.26352 2.69,-1.99717 1.6304,-0.77442 3.7498,-0.77442 2.364,0 4.1982,1.05973 1.8749,1.05972 2.9346,3.13841 1.0597,2.03793 1.0597,5.01331 v 11.37165 q 0,0.44835 -0.2853,0.73366 -0.2853,0.28531 -0.7337,0.28531 h -5.2578 q -0.4076,0 -0.7337,-0.28531 -0.2853,-0.28531 -0.2853,-0.73366 v -11.1271 q 0,-1.91565 -0.9374,-2.93462 -0.8967,-1.05972 -2.6901,-1.05972 -1.6711,0 -2.6901,1.05972 -1.0189,1.01897 -1.0189,2.93462 v 11.1271 q 0,0.44835 -0.2853,0.73366 -0.2853,0.28531 -0.7337,0.28531 z" /></g>
</g>
</svg>